<svg width="22" height="22" viewBox="0 0 22 22" fill="none" xmlns="http://www.w3.org/2000/svg">
<path d="M20.4286 12.5685H12.5714V20.4256C12.5714 20.8424 12.4059 21.2421 12.1112 21.5368C11.8165 21.8315 11.4168 21.9971 11 21.9971C10.5832 21.9971 10.1835 21.8315 9.88883 21.5368C9.59413 21.2421 9.42857 20.8424 9.42857 20.4256V12.5685H1.57143C1.15466 12.5685 0.754961 12.4029 0.460261 12.1082C0.165561 11.8135 0 11.4138 0 10.9971C0 10.5803 0.165561 10.1806 0.460261 9.8859C0.754961 9.5912 1.15466 9.42564 1.57143 9.42564H9.42857V1.5685C9.42857 1.15173 9.59413 0.752031 9.88883 0.457331C10.1835 0.162631 10.5832 -0.00292969 11 -0.00292969C11.4168 -0.00292969 11.8165 0.162631 12.1112 0.457331C12.4059 0.752031 12.5714 1.15173 12.5714 1.5685V9.42564H20.4286C20.8453 9.42564 21.245 9.5912 21.5397 9.8859C21.8344 10.1806 22 10.5803 22 10.9971C22 11.4138 21.8344 11.8135 21.5397 12.1082C21.245 12.4029 20.8453 12.5685 20.4286 12.5685Z" fill="url(#paint0_linear_1_148)"/>
<defs>
<linearGradient id="paint0_linear_1_148" x1="14.3" y1="-12.8363" x2="-1.69002" y2="61.0117" gradientUnits="userSpaceOnUse">
<stop/>
<stop offset="1" stop-opacity="0.2"/>
</linearGradient>
</defs>
</svg>
