<svg width="27" height="27" viewBox="0 0 27 27" fill="none" xmlns="http://www.w3.org/2000/svg">
<g clip-path="url(#clip0_48_917)">
<path d="M25.052 14.9445H15.7663V24.2303C15.7663 24.7228 15.5707 25.1952 15.2224 25.5435C14.8741 25.8917 14.4017 26.0874 13.9092 26.0874C13.4166 26.0874 12.9443 25.8917 12.596 25.5435C12.2477 25.1952 12.052 24.7228 12.052 24.2303V14.9445H2.76632C2.27378 14.9445 1.80141 14.7489 1.45312 14.4006C1.10484 14.0523 0.90918 13.5799 0.90918 13.0874C0.90918 12.5949 1.10484 12.1225 1.45312 11.7742C1.80141 11.4259 2.27378 11.2303 2.76632 11.2303H12.052V1.94455C12.052 1.452 12.2477 0.979628 12.596 0.631346C12.9443 0.283065 13.4166 0.0874023 13.9092 0.0874023C14.4017 0.0874023 14.8741 0.283065 15.2224 0.631346C15.5707 0.979628 15.7663 1.452 15.7663 1.94455V11.2303H25.052C25.5446 11.2303 26.017 11.4259 26.3652 11.7742C26.7135 12.1225 26.9092 12.5949 26.9092 13.0874C26.9092 13.5799 26.7135 14.0523 26.3652 14.4006C26.017 14.7489 25.5446 14.9445 25.052 14.9445Z" fill="url(#paint0_linear_48_917)"/>
</g>
<defs>
<linearGradient id="paint0_linear_48_917" x1="17.8092" y1="-15.0793" x2="-1.08812" y2="72.1957" gradientUnits="userSpaceOnUse">
<stop stop-color="white"/>
<stop offset="1" stop-color="white" stop-opacity="0.2"/>
</linearGradient>
<clipPath id="clip0_48_917">
<rect width="26" height="26" fill="white" transform="translate(0.90918 0.0908203)"/>
</clipPath>
</defs>
</svg>
